<svg width="26" height="26" viewBox="0 0 26 26" fill="none" xmlns="http://www.w3.org/2000/svg">
<path d="M13.0003 8.9375C12.229 8.93708 11.4736 9.1562 10.8223 9.56925C10.171 9.98231 9.65072 10.5722 9.32229 11.27C8.99387 11.9679 8.87087 12.7448 8.96768 13.5099C9.06448 14.2751 9.37708 14.9968 9.86895 15.5909C10.3608 16.1849 11.0116 16.6267 11.7453 16.8645C12.4789 17.1023 13.2651 17.1264 14.012 16.9339C14.7588 16.7415 15.4354 16.3404 15.9627 15.7775C16.49 15.2147 16.8462 14.5134 16.9897 13.7556C17.0389 13.5068 17.0634 13.2537 17.0628 13C17.0628 11.9226 16.6348 10.8892 15.8729 10.1274C15.111 9.36551 14.0777 8.9375 13.0003 8.9375Z" fill="#1F3D8F"/>
<path d="M16.9894 13.7556C17.0386 13.5068 17.0631 13.2537 17.0625 13C17.0659 11.952 16.6654 10.943 15.9442 10.1826C15.2231 9.42213 14.2367 8.96872 13.1901 8.91651C12.1434 8.8643 11.1168 9.21731 10.3235 9.90221C9.53032 10.5871 9.03142 11.5513 8.93047 12.5944C8.82952 13.6375 9.13429 14.6794 9.78147 15.5037C10.4286 16.328 11.3685 16.8713 12.4058 17.0208C13.4431 17.1703 14.498 16.9144 15.3516 16.3063C16.2052 15.6983 16.7917 14.7848 16.9894 13.7556ZM23.9688 13L13 19.9062L2.03125 13L13 6.09375L23.9688 13Z" fill="#FFD45D"/>
<path d="M25.5938 2.03125V23.9688C25.5938 24.3997 25.4225 24.8131 25.1178 25.1178C24.8131 25.4225 24.3997 25.5938 23.9688 25.5938H2.03125C1.60027 25.5938 1.18695 25.4225 0.882201 25.1178C0.577455 24.8131 0.40625 24.3997 0.40625 23.9688V2.03125C0.40625 1.60027 0.577455 1.18695 0.882201 0.882201C1.18695 0.577455 1.60027 0.40625 2.03125 0.40625H23.9688C24.3997 0.40625 24.8131 0.577455 25.1178 0.882201C25.4225 1.18695 25.5938 1.60027 25.5938 2.03125ZM13 19.9062L23.9688 13L13 6.09375L2.03125 13L13 19.9062Z" fill="#009B3A"/>
<path d="M12.9997 17.0625C13.5393 17.0627 14.0733 16.955 14.5706 16.7457C15.0678 16.5364 15.5182 16.2297 15.8951 15.8438H10.1016C10.479 16.2298 10.9298 16.5366 11.4275 16.7459C11.9253 16.9552 12.4598 17.0628 12.9997 17.0625Z" fill="#162A63"/>
<path d="M13 19.9074L23.9688 13.0011L23.4707 12.6875C22.6329 13.6778 21.5891 14.4733 20.4121 15.0187C19.2352 15.564 17.9534 15.846 16.6562 15.8449H15.8953C15.518 16.2307 15.0674 16.5372 14.5699 16.7465C14.0725 16.9558 13.5383 17.0636 12.9986 17.0636C12.4589 17.0636 11.9247 16.9558 11.4272 16.7465C10.9298 16.5372 10.4792 16.2307 10.1018 15.8449H9.34375C8.0466 15.846 6.76483 15.564 5.58788 15.0187C4.41093 14.4733 3.36713 13.6778 2.52931 12.6875L2.03125 13.0011L13 19.9074Z" fill="#FFB844"/>
<path d="M23.9688 13L13 19.9062L2.03126 13L2.52932 12.6864C1.15643 11.0737 0.403658 9.0242 0.406257 6.90625V23.9688C0.406257 24.3997 0.577462 24.8131 0.882208 25.1178C1.18695 25.4225 1.60028 25.5938 2.03126 25.5938H23.9688C24.3997 25.5938 24.8131 25.4225 25.1178 25.1178C25.4226 24.8131 25.5938 24.3997 25.5938 23.9688V6.90625C25.5964 9.0242 24.8436 11.0737 23.4707 12.6864L23.9688 13Z" fill="#00802F"/>
<path d="M17.0484 13.2885C14.8111 11.6709 12.0406 10.9686 9.30286 11.3251C9.2384 11.4642 9.18198 11.6069 9.13386 11.7525C9.09018 11.8925 9.05397 12.0348 9.02539 12.1786C9.07861 12.1693 9.13142 12.1624 9.19358 12.1543C10.5173 11.9498 11.8688 12.0149 13.1667 12.3459C14.4646 12.6768 15.6823 13.2666 16.7466 14.0799L16.8051 14.1254C16.8302 14.144 16.8575 14.1595 16.8863 14.1717C16.9283 14.0348 16.963 13.8958 16.9903 13.7553C17.0195 13.6011 17.0389 13.4452 17.0484 13.2885Z" fill="#E9EDF5"/>
<path d="M23.9688 23.9688H2.03125C1.60027 23.9688 1.18695 23.7975 0.882201 23.4928C0.577455 23.1881 0.40625 22.7747 0.40625 22.3438V23.9688C0.40625 24.3997 0.577455 24.8131 0.882201 25.1178C1.18695 25.4225 1.60027 25.5938 2.03125 25.5938H23.9688C24.3997 25.5938 24.8131 25.4225 25.1178 25.1178C25.4225 24.8131 25.5938 24.3997 25.5938 23.9688V22.3438C25.5938 22.7747 25.4225 23.1881 25.1178 23.4928C24.8131 23.7975 24.3997 23.9688 23.9688 23.9688Z" fill="#006927"/>
<path d="M23.9688 0.40625H2.03125C1.60027 0.40625 1.18695 0.577455 0.882201 0.882201C0.577455 1.18695 0.40625 1.60027 0.40625 2.03125V3.65625C0.40625 3.22527 0.577455 2.81195 0.882201 2.5072C1.18695 2.20245 1.60027 2.03125 2.03125 2.03125H23.9688C24.3997 2.03125 24.8131 2.20245 25.1178 2.5072C25.4225 2.81195 25.5938 3.22527 25.5938 3.65625V2.03125C25.5938 1.60027 25.4225 1.18695 25.1178 0.882201C24.8131 0.577455 24.3997 0.40625 23.9688 0.40625Z" fill="#00BA46"/>
</svg>
