<svg width="210" height="209" viewBox="0 0 210 209" fill="none" xmlns="http://www.w3.org/2000/svg">
<g clip-path="url(#clip0_857_6726)">
<path d="M173.334 133.85C175.859 134.933 178.799 133.769 179.722 131.182C185.006 116.366 185.786 100.274 181.901 84.9498C177.607 68.0143 167.854 52.9599 154.148 42.1122C140.442 31.2644 123.546 25.2269 106.07 24.9323C88.5945 24.6377 71.5114 30.1024 57.4597 40.4822C43.408 50.8621 33.1698 65.5794 28.3266 82.3608C23.4833 99.1422 24.3047 117.054 30.6636 133.329C37.0226 149.604 48.5654 163.336 63.5089 172.405C77.0312 180.611 92.6574 184.585 108.383 183.881C111.126 183.758 113.101 181.289 112.806 178.559C112.51 175.831 110.059 173.877 107.317 173.976C93.7654 174.463 80.3231 170.983 68.6672 163.909C55.5916 155.974 45.4917 143.958 39.9276 129.718C34.3635 115.477 33.6448 99.8046 37.8826 85.1208C42.1204 70.4371 51.0789 57.5594 63.3741 48.477C75.6693 39.3947 90.6171 34.6131 105.908 34.8709C121.2 35.1286 135.984 40.4114 147.976 49.9032C159.969 59.395 168.503 72.5676 172.26 87.3862C175.609 100.593 174.997 114.452 170.56 127.253C169.66 129.848 170.81 132.767 173.334 133.85Z" fill="#F0F0F0" stroke="white"/>
<path d="M112.806 178.566C113.102 181.294 115.556 183.282 118.26 182.819C130.488 180.724 142.079 175.795 152.091 168.4C162.1 161.006 170.213 151.381 175.803 140.318C177.041 137.866 175.859 134.933 173.334 133.851C170.81 132.768 167.902 133.946 166.641 136.387C161.761 145.835 154.767 154.059 146.176 160.405C137.585 166.751 127.664 171.022 117.193 172.913C114.49 173.401 112.511 175.835 112.806 178.566Z" fill="#00A3E0" stroke="white"/>
</g>
<g clip-path="url(#clip1_857_6726)">
<path d="M189.808 104.755C192.273 104.755 194.283 102.756 194.161 100.294C193.438 85.7738 189.2 71.6243 181.784 59.0815C173.61 45.2569 161.877 33.894 147.816 26.1853C133.755 18.4766 117.884 14.7062 101.869 15.2699C85.8545 15.8337 70.2863 20.7107 56.7985 29.3891C43.3107 38.0676 32.4004 50.2275 25.2128 64.5928C18.0251 78.9581 14.8251 94.9992 15.9484 111.032C17.0718 127.066 22.4771 142.5 31.5972 155.716C39.8656 167.698 50.9109 177.455 63.7557 184.167C65.9495 185.313 68.617 184.315 69.6465 182.064C70.6726 179.82 69.6818 177.181 67.5011 176.026C56.1025 169.993 46.2976 161.285 38.9375 150.62C30.7294 138.726 25.8646 124.835 24.8536 110.405C23.8426 95.9748 26.7226 81.5379 33.1915 68.6091C39.6604 55.6803 49.4796 44.7364 61.6187 36.9258C73.7577 29.1151 87.7691 24.7258 102.182 24.2185C116.595 23.7112 130.879 27.1045 143.534 34.0423C156.189 40.9802 166.749 51.2068 174.106 63.6489C180.704 74.809 184.507 87.3825 185.221 100.294C185.357 102.755 187.343 104.755 189.808 104.755Z" fill="#F0F0F0" stroke="white"/>
<path d="M69.638 182.083C68.6118 184.327 69.5919 186.989 71.8822 187.907C84.3584 192.906 97.8181 195.024 111.258 194.076C126.184 193.024 140.607 188.226 153.202 180.122C165.796 172.019 176.158 160.87 183.334 147.701C189.798 135.839 193.491 122.681 194.161 109.218C194.283 106.756 192.273 104.756 189.808 104.756C187.343 104.756 185.357 106.756 185.221 109.217C184.56 121.178 181.247 132.861 175.501 143.406C169.042 155.259 159.716 165.292 148.382 172.586C137.047 179.879 124.066 184.197 110.632 185.144C98.692 185.986 86.7344 184.14 75.628 179.764C73.3249 178.857 70.6674 179.832 69.638 182.083Z" fill="#A0DCFF" stroke="white"/>
</g>
<g clip-path="url(#clip2_857_6726)">
<path d="M9.1909 104.547C6.42121 104.547 4.16287 106.794 4.30116 109.56C5.11436 125.828 9.87575 141.681 18.2058 155.734C27.3895 171.227 40.5722 183.961 56.3704 192.6C72.1685 201.239 89.9997 205.465 107.993 204.833C125.986 204.201 143.477 198.735 158.631 189.01C173.785 179.284 186.043 165.656 194.118 149.557C202.194 133.458 205.789 115.481 204.527 97.5128C203.265 79.5444 197.192 62.2472 186.945 47.4363C177.652 34.0038 165.237 23.0656 150.799 15.5438C148.341 14.2633 145.355 15.3802 144.2 17.8995C143.045 20.4175 144.158 23.3823 146.608 24.6757C159.414 31.4373 170.429 41.1952 178.698 53.1474C187.92 66.4772 193.386 82.0447 194.522 98.2162C195.658 114.388 192.422 130.567 185.154 145.056C177.886 159.545 166.854 171.81 153.215 180.563C139.577 189.317 123.835 194.236 107.641 194.804C91.4473 195.373 75.3992 191.57 61.1808 183.795C46.9624 176.02 35.098 164.559 26.8327 150.615C19.4212 138.112 15.1486 124.025 14.345 109.56C14.1913 106.794 11.9606 104.547 9.1909 104.547Z" fill="#0D8390" stroke="white"/>
<path d="M144.201 17.8977C145.356 15.3796 144.255 12.3899 141.683 11.3619C127.666 5.75965 112.544 3.38679 97.4439 4.44845C80.6739 5.62753 64.4691 11.005 50.319 20.0865C36.169 29.1681 24.5275 41.6624 16.4646 56.4211C9.20424 69.7107 5.05525 84.4525 4.30122 99.5358C4.16293 102.302 6.42128 104.549 9.19096 104.549C11.9606 104.549 14.1914 102.302 14.345 99.5363C15.0895 86.1359 18.8117 73.0474 25.2656 61.2339C32.5222 47.951 42.9996 36.7062 55.7347 28.5328C68.4697 20.3594 83.054 15.5197 98.1469 14.4585C111.568 13.5149 125.009 15.5861 137.492 20.4944C140.072 21.5085 143.046 20.417 144.201 17.8977Z" fill="#F0F0F0" stroke="white"/>
</g>
<g clip-path="url(#clip3_857_6726)">
<path d="M129.854 163.133C130.782 165.312 133.308 166.337 135.423 165.273C141.386 162.273 146.875 158.411 151.716 153.809C153.426 152.183 153.321 149.47 151.596 147.858C149.863 146.239 147.154 146.349 145.42 147.967C141.416 151.701 136.918 154.865 132.052 157.368C129.947 158.451 128.925 160.955 129.854 163.133Z" fill="#9DD4CF" stroke="white"/>
<path d="M151.574 147.837C153.307 149.456 156.038 149.367 157.538 147.53C167.26 135.627 172.715 120.729 172.945 105.232C173.196 88.2939 167.186 71.8407 156.074 59.0464C144.963 46.252 129.537 38.0231 112.772 35.9469C96.0079 33.8708 79.0925 38.0945 65.2893 47.8034C51.4861 57.5122 41.7731 72.0183 38.024 88.5233C34.2748 105.028 36.7551 122.363 44.9864 137.183C53.2178 152.003 66.6169 163.259 82.5991 168.779C97.2237 173.831 113.063 173.752 127.541 168.633C129.773 167.843 130.782 165.311 129.854 163.133C128.925 160.955 126.411 159.958 124.171 160.727C111.641 165.031 97.9801 165.04 85.3537 160.679C71.3692 155.849 59.645 146 52.4426 133.032C45.2402 120.064 43.0699 104.897 46.3504 90.4548C49.6309 76.0129 58.1298 63.3201 70.2076 54.8249C82.2854 46.3296 97.0863 42.6339 111.755 44.4505C126.424 46.2671 139.922 53.4674 149.645 64.6625C159.367 75.8575 164.626 90.2541 164.406 105.075C164.208 118.464 159.551 131.343 151.244 141.692C149.767 143.532 149.85 146.226 151.574 147.837Z" fill="#F0F0F0" stroke="white"/>
</g>
<path d="M86.9961 120H80.9609V103.477L81.0195 100.762L81.1172 97.793C80.1146 98.7956 79.418 99.4531 79.0273 99.7656L75.7461 102.402L72.8359 98.7695L82.0352 91.4453H86.9961V120ZM114.73 105.723C114.73 110.71 113.91 114.401 112.27 116.797C110.642 119.193 108.129 120.391 104.73 120.391C101.436 120.391 98.9492 119.154 97.2695 116.68C95.6029 114.206 94.7695 110.553 94.7695 105.723C94.7695 100.684 95.5833 96.9727 97.2109 94.5898C98.8385 92.194 101.345 90.9961 104.73 90.9961C108.025 90.9961 110.512 92.2461 112.191 94.7461C113.884 97.2461 114.73 100.905 114.73 105.723ZM100.766 105.723C100.766 109.225 101.065 111.738 101.664 113.262C102.276 114.772 103.298 115.527 104.73 115.527C106.137 115.527 107.152 114.759 107.777 113.223C108.402 111.686 108.715 109.186 108.715 105.723C108.715 102.22 108.396 99.707 107.758 98.1836C107.133 96.6471 106.124 95.8789 104.73 95.8789C103.311 95.8789 102.296 96.6471 101.684 98.1836C101.072 99.707 100.766 102.22 100.766 105.723ZM137.738 120H117.777V115.801L124.945 108.555C127.068 106.38 128.454 104.876 129.105 104.043C129.757 103.197 130.225 102.415 130.512 101.699C130.798 100.983 130.941 100.241 130.941 99.4727C130.941 98.3268 130.622 97.474 129.984 96.9141C129.359 96.3542 128.52 96.0742 127.465 96.0742C126.358 96.0742 125.284 96.3281 124.242 96.8359C123.201 97.3438 122.113 98.0664 120.98 99.0039L117.699 95.1172C119.105 93.9193 120.271 93.0729 121.195 92.5781C122.12 92.0833 123.129 91.7057 124.223 91.4453C125.316 91.1719 126.54 91.0352 127.895 91.0352C129.678 91.0352 131.254 91.3607 132.621 92.0117C133.988 92.6628 135.049 93.5742 135.805 94.7461C136.56 95.918 136.938 97.2591 136.938 98.7695C136.938 100.085 136.703 101.322 136.234 102.48C135.779 103.626 135.062 104.805 134.086 106.016C133.122 107.227 131.417 108.952 128.969 111.191L125.297 114.648V114.922H137.738V120Z" fill="#53565A"/>
<defs>
<clipPath id="clip0_857_6726">
<rect width="159.149" height="159.149" fill="white" transform="translate(62.99) rotate(23.2175)"/>
</clipPath>
<clipPath id="clip1_857_6726">
<rect width="178.543" height="179.593" fill="white" transform="translate(15.7288 14.7031)"/>
</clipPath>
<clipPath id="clip2_857_6726">
<rect width="200.598" height="200.598" fill="white" transform="translate(204.774 204.799) rotate(-180)"/>
</clipPath>
<clipPath id="clip3_857_6726">
<rect width="138.633" height="136.533" fill="white" transform="translate(35.6836 35.709)"/>
</clipPath>
</defs>
</svg>
