<svg width="26" height="26" viewBox="0 0 26 26" fill="none" xmlns="http://www.w3.org/2000/svg">
<path d="M4.875 10.9688L4.0625 11.7812L4.46875 13L3.25 12.1875L2.03125 13L2.4375 11.7812L1.625 10.9688H2.84375L3.25 9.75L3.65625 10.9688H4.875Z" fill="#E9EDF5"/>
<path d="M9.34375 10.9688L8.53125 11.7812L8.9375 13L7.71875 12.1875L6.5 13L6.90625 11.7812L6.09375 10.9688H7.3125L7.71875 9.75L8.125 10.9688H9.34375Z" fill="#E9EDF5"/>
<path d="M13.8125 10.9688L13 11.7812L13.4062 13L12.1875 12.1875L10.9688 13L11.375 11.7812L10.5625 10.9688H11.7812L12.1875 9.75L12.5938 10.9688H13.8125Z" fill="#E9EDF5"/>
<path d="M6.90625 6.90625L6.09375 7.71875L6.5 8.9375L5.28125 8.125L4.0625 8.9375L4.46875 7.71875L3.65625 6.90625H4.875L5.28125 5.6875L5.6875 6.90625H6.90625Z" fill="#E9EDF5"/>
<path d="M11.375 6.90625L10.5625 7.71875L10.9688 8.9375L9.75 8.125L8.53125 8.9375L8.9375 7.71875L8.125 6.90625H9.34375L9.75 5.6875L10.1562 6.90625H11.375Z" fill="#E9EDF5"/>
<path d="M13.8125 2.84375L13 3.65625L13.4062 4.875L12.1875 4.0625L10.9688 4.875L11.375 3.65625L10.5625 2.84375H11.7812L12.1875 1.625L12.5938 2.84375H13.8125Z" fill="#E9EDF5"/>
<path d="M9.34375 2.84375L8.53125 3.65625L8.9375 4.875L7.71875 4.0625L6.5 4.875L6.90625 3.65625L6.09375 2.84375H7.3125L7.71875 1.625L8.125 2.84375H9.34375Z" fill="#E9EDF5"/>
<path d="M4.875 2.84375L4.0625 3.65625L4.46875 4.875L3.25 4.0625L2.03125 4.875L2.4375 3.65625L1.625 2.84375H2.84375L3.25 1.625L3.65625 2.84375H4.875Z" fill="#E9EDF5"/>
<path d="M25.5938 21.9375H0.40625V23.9688H25.5938V21.9375Z" fill="#E9EDF5"/>
<path d="M25.5938 17.875H0.40625V19.9062H25.5938V17.875Z" fill="#E9EDF5"/>
<path d="M25.5938 14.2188V15.8438H0.40625V14.2188H4.46875H8.9375H15.0312H25.5938Z" fill="#E9EDF5"/>
<path d="M25.5938 10.1562H15.0312V12.1875H25.5938V10.1562Z" fill="#E9EDF5"/>
<path d="M25.5938 6.09375H15.0312V8.125H25.5938V6.09375Z" fill="#E9EDF5"/>
<path d="M25.5938 2.03125H15.0312V4.0625H25.5938V2.03125Z" fill="#E9EDF5"/>
<path d="M0.40625 23.9688H25.5938C25.5938 24.3997 25.4225 24.8131 25.1178 25.1178C24.8131 25.4225 24.3997 25.5938 23.9688 25.5938H2.03125C1.60027 25.5938 1.18695 25.4225 0.882201 25.1178C0.577455 24.8131 0.40625 24.3997 0.40625 23.9688Z" fill="#E21743"/>
<path d="M25.5938 19.9062H0.40625V21.9375H25.5938V19.9062Z" fill="#E21743"/>
<path d="M25.5938 15.8438H0.40625V17.875H25.5938V15.8438Z" fill="#E21743"/>
<path d="M25.5938 12.1875H15.0312V14.2188H25.5938V12.1875Z" fill="#E21743"/>
<path d="M25.5938 8.125H15.0312V10.1562H25.5938V8.125Z" fill="#E21743"/>
<path d="M25.5938 4.0625H15.0312V6.09375H25.5938V4.0625Z" fill="#E21743"/>
<path d="M25.5938 2.03125H15.0312V0.40625H23.9688C24.3997 0.40625 24.8131 0.577455 25.1178 0.882201C25.4225 1.18695 25.5938 1.60027 25.5938 2.03125Z" fill="#E21743"/>
<path d="M7.71875 0.40625H2.03125C1.60027 0.40625 1.18695 0.577455 0.882201 0.882201C0.577455 1.18695 0.40625 1.60027 0.40625 2.03125V14.2188H15.0312V0.40625H7.71875ZM7.3125 2.84375L7.71875 1.625L8.125 2.84375H9.34375L8.53125 3.65625L8.9375 4.875L7.71875 4.0625L6.5 4.875L6.90625 3.65625L6.09375 2.84375H7.3125ZM2.84375 2.84375L3.25 1.625L3.65625 2.84375H4.875L4.0625 3.65625L4.46875 4.875L3.25 4.0625L2.03125 4.875L2.4375 3.65625L1.625 2.84375H2.84375ZM4.46875 13L3.25 12.1875L2.03125 13L2.4375 11.7812L1.625 10.9688H2.84375L3.25 9.75L3.65625 10.9688H4.875L4.0625 11.7812L4.46875 13ZM4.0625 8.9375L4.46875 7.71875L3.65625 6.90625H4.875L5.28125 5.6875L5.6875 6.90625H6.90625L6.09375 7.71875L6.5 8.9375L5.28125 8.125L4.0625 8.9375ZM8.9375 13L7.71875 12.1875L6.5 13L6.90625 11.7812L6.09375 10.9688H7.3125L7.71875 9.75L8.125 10.9688H9.34375L8.53125 11.7812L8.9375 13ZM8.53125 8.9375L8.9375 7.71875L8.125 6.90625H9.34375L9.75 5.6875L10.1562 6.90625H11.375L10.5625 7.71875L10.9688 8.9375L9.75 8.125L8.53125 8.9375ZM13.4062 13L12.1875 12.1875L10.9688 13L11.375 11.7812L10.5625 10.9688H11.7812L12.1875 9.75L12.5938 10.9688H13.8125L13 11.7812L13.4062 13ZM13 3.65625L13.4062 4.875L12.1875 4.0625L10.9688 4.875L11.375 3.65625L10.5625 2.84375H11.7812L12.1875 1.625L12.5938 2.84375H13.8125L13 3.65625Z" fill="#2A54C4"/>
<path d="M25.5937 8.125V6.90625C25.593 7.31395 25.5647 7.72114 25.5088 8.125H25.5937Z" fill="#DCE1EB"/>
<path d="M2.03125 13.0019L2.51875 12.6769C2.42694 12.5685 2.33743 12.4575 2.25022 12.3438L2.03125 13.0019Z" fill="#BEC3D2"/>
<path d="M25.5938 21.9375H0.40625V23.9688H25.5938V21.9375Z" fill="#DCE1EB"/>
<path d="M25.5938 17.875H0.40625V19.9062H25.5938V17.875Z" fill="#DCE1EB"/>
<path d="M4.20794 14.2188H0.40625V15.8438H9.34375C7.505 15.846 5.71075 15.2783 4.20794 14.2188ZM16.6562 15.8438H25.5938V14.2188H21.7921C20.2892 15.2783 18.495 15.846 16.6562 15.8438ZM23.8652 12.1875H25.5938V10.1562H24.9815C24.6996 10.8791 24.3243 11.562 23.8652 12.1875Z" fill="#DCE1EB"/>
<path d="M2.03125 25.5938H23.9688C24.3997 25.5938 24.8131 25.4225 25.1178 25.1178C25.4225 24.8131 25.5938 24.3997 25.5938 23.9688H0.40625C0.40625 24.3997 0.577455 24.8131 0.882201 25.1178C1.18695 25.4225 1.60027 25.5938 2.03125 25.5938Z" fill="#B51135"/>
<path d="M25.5938 19.9062H0.40625V21.9375H25.5938V19.9062Z" fill="#B51135"/>
<path d="M9.34375 15.8438H0.40625V17.875H25.5938V15.8438H16.6562H9.34375Z" fill="#B51135"/>
<path d="M21.792 14.2188H25.5937V12.1875H23.8651C23.2887 12.9725 22.5885 13.6585 21.792 14.2188ZM24.9815 10.1562H25.5937V8.125H25.5088C25.4141 8.82059 25.2371 9.50246 24.9815 10.1562Z" fill="#B51135"/>
<path d="M2.51876 12.675L2.03126 13L2.25063 12.3415C1.05227 10.7832 0.403717 8.87199 0.406257 6.90625V14.2188H4.20794C3.58144 13.7782 3.01378 13.2594 2.51876 12.675Z" fill="#2448A8"/>
<path d="M23.9688 0.40625H15.0312V2.03125H23.9688C24.3997 2.03125 24.8131 2.20245 25.1178 2.5072C25.4225 2.81195 25.5938 3.22527 25.5938 3.65625V2.03125C25.5938 1.60027 25.4225 1.18695 25.1178 0.882201C24.8131 0.577455 24.3997 0.40625 23.9688 0.40625Z" fill="#EA5172"/>
<path d="M15.0312 0.40625H2.03125C1.60027 0.40625 1.18695 0.577455 0.882201 0.882201C0.577455 1.18695 0.40625 1.60027 0.40625 2.03125V3.65625C0.40625 3.22527 0.577455 2.81195 0.882201 2.5072C1.18695 2.20245 1.60027 2.03125 2.03125 2.03125H3.11472L3.25 1.625L3.38528 2.03125H7.58347L7.71875 1.625L7.85403 2.03125H12.0522L12.1875 1.625L12.3228 2.03125H15.0312V0.40625Z" fill="#4F7FFF"/>
<path d="M12.0518 2.03125H12.3223L12.187 1.625L12.0518 2.03125Z" fill="#F7FAFF"/>
<path d="M7.58301 2.03125H7.85357L7.71829 1.625L7.58301 2.03125Z" fill="#F7FAFF"/>
<path d="M3.11426 2.03125H3.38482L3.24954 1.625L3.11426 2.03125Z" fill="#F7FAFF"/>
<path d="M0.40625 22.3438V23.9688H2.03125C1.60027 23.9688 1.18695 23.7975 0.882201 23.4928C0.577455 23.1881 0.40625 22.7747 0.40625 22.3438ZM23.9688 23.9688H25.5938V22.3438C25.5938 22.7747 25.4225 23.1881 25.1178 23.4928C24.8131 23.7975 24.3997 23.9688 23.9688 23.9688Z" fill="#9DA3B5"/>
<path d="M2.03125 23.9688H0.40625C0.40625 24.3997 0.577455 24.8131 0.882201 25.1178C1.18695 25.4225 1.60027 25.5938 2.03125 25.5938H23.9688C24.3997 25.5938 24.8131 25.4225 25.1178 25.1178C25.4225 24.8131 25.5938 24.3997 25.5938 23.9688H2.03125Z" fill="#750A26"/>
</svg>
