<svg width="208" height="205" viewBox="0 0 208 205" fill="none" xmlns="http://www.w3.org/2000/svg">
<path d="M90.0352 118H70.0742V113.801L77.2422 106.555C79.3646 104.38 80.7513 102.876 81.4023 102.043C82.0534 101.197 82.5221 100.415 82.8086 99.6992C83.0951 98.9831 83.2383 98.2409 83.2383 97.4727C83.2383 96.3268 82.9193 95.474 82.2812 94.9141C81.6562 94.3542 80.8164 94.0742 79.7617 94.0742C78.6549 94.0742 77.5807 94.3281 76.5391 94.8359C75.4974 95.3438 74.4102 96.0664 73.2773 97.0039L69.9961 93.1172C71.4023 91.9193 72.5677 91.0729 73.4922 90.5781C74.4167 90.0833 75.4258 89.7057 76.5195 89.4453C77.6133 89.1719 78.8372 89.0352 80.1914 89.0352C81.9753 89.0352 83.5508 89.3607 84.918 90.0117C86.2852 90.6628 87.3464 91.5742 88.1016 92.7461C88.8568 93.918 89.2344 95.2591 89.2344 96.7695C89.2344 98.0846 89 99.3216 88.5312 100.48C88.0755 101.626 87.3594 102.805 86.3828 104.016C85.4193 105.227 83.7135 106.952 81.2656 109.191L77.5938 112.648V112.922H90.0352V118ZM95.7578 118L106.48 94.5625H92.3984V89.4844H112.887V93.2734L102.086 118H95.7578ZM136.383 112.082H132.945V118H127.047V112.082H114.859V107.883L127.379 89.4453H132.945V107.395H136.383V112.082ZM127.047 107.395V102.551C127.047 101.743 127.079 100.572 127.145 99.0352C127.21 97.4987 127.262 96.6068 127.301 96.3594H127.145C126.663 97.4271 126.083 98.4688 125.406 99.4844L120.172 107.395H127.047Z" fill="#53565A"/>
<path d="M33.6469 166.181C31.2185 168.436 31.0662 172.247 33.4624 174.536C50.2663 190.586 72.1935 200.33 95.4981 201.973C118.803 203.616 141.88 197.046 160.77 183.512C163.463 181.582 163.847 177.787 161.759 175.214L149.63 160.266C147.542 157.692 143.777 157.324 141.031 159.179C128.341 167.758 113.09 171.885 97.6959 170.8C82.3015 169.715 67.7812 163.488 56.4197 153.214C53.962 150.991 50.1818 150.828 47.7535 153.083L33.6469 166.181Z" fill="#FAE17A" stroke="white" stroke-width="3"/>
<path d="M162.16 174.993C164.248 177.566 168.04 177.973 170.483 175.734C179.951 167.061 187.673 156.632 193.211 145.007C198.749 133.381 201.982 120.813 202.751 107.997C202.95 104.689 200.245 102 196.931 102H177.681C174.368 102 171.709 104.691 171.42 107.992C170.706 116.155 168.536 124.141 164.999 131.567C161.461 138.993 156.627 145.709 150.738 151.407C148.357 153.711 147.943 157.472 150.031 160.045L162.16 174.993Z" fill="#53565A" stroke="white" stroke-width="3"/>
<path d="M197.591 102C200.904 102 203.609 99.3112 203.411 96.0035C202.52 81.1686 198.331 66.6919 191.119 53.6397C182.939 38.8338 171.137 26.345 156.816 17.3417C142.496 8.33834 126.126 3.11473 109.237 2.15957C94.3493 1.31755 79.4874 3.81694 65.7321 9.44339C62.665 10.6979 61.4143 14.3011 62.8504 17.2874L71.1935 34.6354C72.6297 37.6218 76.2077 38.8516 79.3078 37.6812C88.2706 34.2974 97.8638 32.8163 107.473 33.3597C119.084 34.0164 130.338 37.6076 140.183 43.7974C150.029 49.9872 158.143 58.5733 163.767 68.7523C168.421 77.1764 171.244 86.4637 172.079 96.0075C172.368 99.3086 175.027 102 178.341 102H197.591Z" fill="#A5F293" stroke="white" stroke-width="3"/>
<path d="M61.5098 17.4072C60.0736 14.4209 56.4781 13.1484 53.5833 14.7611C41.6879 21.3879 31.2518 30.3855 22.9335 41.2192C13.3952 53.6418 6.90812 68.1312 3.995 83.52C1.08188 98.9088 1.82412 114.767 6.16194 129.816C9.94492 142.941 16.3703 155.13 25.0205 165.646C27.1256 168.205 30.9374 168.335 33.3657 166.08L47.4723 152.982C49.9006 150.727 50.018 146.946 47.9835 144.33C42.6256 137.442 38.6165 129.581 36.1894 121.161C33.2072 110.815 32.6969 99.9123 34.6997 89.3325C36.7025 78.7527 41.1623 68.7912 47.7199 60.2507C53.0567 53.3 59.6615 47.4487 67.1663 42.9954C70.0161 41.3044 71.289 37.7416 69.8528 34.7553L61.5098 17.4072Z" fill="#F39593" stroke="white" stroke-width="3"/>
</svg>
