<svg width="26" height="26" viewBox="0 0 26 26" fill="none" xmlns="http://www.w3.org/2000/svg">
<g clip-path="url(#clip0_312_2225)">
<path d="M25.5938 2.03125V8.53125H0.40625V2.03125C0.40625 1.60027 0.577455 1.18695 0.882201 0.882201C1.18695 0.577455 1.60027 0.40625 2.03125 0.40625H23.9688C24.3997 0.40625 24.8131 0.577455 25.1178 0.882201C25.4225 1.18695 25.5938 1.60027 25.5938 2.03125Z" fill="#E21743"/>
<path d="M25.5938 8.53125H0.40625V17.4688H25.5938V8.53125Z" fill="#FFD45D"/>
<path d="M25.5938 17.4688V23.9688C25.5938 24.3997 25.4225 24.8131 25.1178 25.1178C24.8131 25.4225 24.3997 25.5938 23.9688 25.5938H2.03125C1.60027 25.5938 1.18695 25.4225 0.882201 25.1178C0.577455 24.8131 0.40625 24.3997 0.40625 23.9688V17.4688H25.5938Z" fill="#E21743"/>
<path d="M0.40625 6.90625V8.53125H0.556562C0.457137 7.99528 0.406825 7.45136 0.40625 6.90625ZM25.5938 8.53125V6.90625C25.5932 7.45136 25.5429 7.99528 25.4434 8.53125H25.5938Z" fill="#C7002B"/>
<path d="M16.6562 15.8438H9.34375C7.2555 15.8434 5.23328 15.1119 3.62813 13.7761C2.02298 12.4404 0.936244 10.5847 0.556562 8.53125H0.40625V17.4688H25.5938V8.53125H25.4434C25.0638 10.5847 23.977 12.4404 22.3719 13.7761C20.7667 15.1119 18.7445 15.8434 16.6562 15.8438Z" fill="#FFB844"/>
<path d="M0.40625 23.9688C0.40625 24.3997 0.577455 24.8131 0.882201 25.1178C1.18695 25.4225 1.60027 25.5938 2.03125 25.5938H23.9688C24.3997 25.5938 24.8131 25.4225 25.1178 25.1178C25.4225 24.8131 25.5938 24.3997 25.5938 23.9688V17.4688H0.40625V23.9688Z" fill="#C7002B"/>
<path d="M23.9688 23.9688H2.03125C1.60027 23.9688 1.18695 23.7975 0.882201 23.4928C0.577455 23.1881 0.40625 22.7747 0.40625 22.3438V23.9688C0.40625 24.3997 0.577455 24.8131 0.882201 25.1178C1.18695 25.4225 1.60027 25.5938 2.03125 25.5938H23.9688C24.3997 25.5938 24.8131 25.4225 25.1178 25.1178C25.4225 24.8131 25.5938 24.3997 25.5938 23.9688V22.3438C25.5938 22.7747 25.4225 23.1881 25.1178 23.4928C24.8131 23.7975 24.3997 23.9688 23.9688 23.9688Z" fill="#B51135"/>
<path d="M23.9688 0.40625H2.03125C1.60027 0.40625 1.18695 0.577455 0.882201 0.882201C0.577455 1.18695 0.40625 1.60027 0.40625 2.03125V3.65625C0.40625 3.22527 0.577455 2.81195 0.882201 2.5072C1.18695 2.20245 1.60027 2.03125 2.03125 2.03125H23.9688C24.3997 2.03125 24.8131 2.20245 25.1178 2.5072C25.4225 2.81195 25.5938 3.22527 25.5938 3.65625V2.03125C25.5938 1.60027 25.4225 1.18695 25.1178 0.882201C24.8131 0.577455 24.3997 0.40625 23.9688 0.40625Z" fill="#EA5172"/>
</g>
<defs>
<clipPath id="clip0_312_2225">
<rect width="26" height="26" fill="white"/>
</clipPath>
</defs>
</svg>
