<svg width="19" height="18" viewBox="0 0 19 18" fill="none" xmlns="http://www.w3.org/2000/svg">
<path d="M4.75 2.25V11.25" stroke="#53565A" stroke-width="2.5" stroke-linecap="round" stroke-linejoin="round"/>
<path d="M13.75 6.75C14.9926 6.75 16 5.74264 16 4.5C16 3.25736 14.9926 2.25 13.75 2.25C12.5074 2.25 11.5 3.25736 11.5 4.5C11.5 5.74264 12.5074 6.75 13.75 6.75Z" stroke="#53565A" stroke-width="2.5" stroke-linecap="round" stroke-linejoin="round"/>
<path d="M4.75 15.75C5.99264 15.75 7 14.7426 7 13.5C7 12.2574 5.99264 11.25 4.75 11.25C3.50736 11.25 2.5 12.2574 2.5 13.5C2.5 14.7426 3.50736 15.75 4.75 15.75Z" stroke="#53565A" stroke-width="2.5" stroke-linecap="round" stroke-linejoin="round"/>
<path d="M13.75 6.75C13.75 8.54021 13.0388 10.2571 11.773 11.523C10.5071 12.7888 8.79021 13.5 7 13.5" stroke="#53565A" stroke-width="2.5" stroke-linecap="round" stroke-linejoin="round"/>
</svg>
