<svg width="167" height="37" viewBox="0 0 167 37" fill="none" xmlns="http://www.w3.org/2000/svg">
<path d="M123.458 33.072C123.458 33.68 123.298 34.2027 122.978 34.64C122.658 35.0773 122.231 35.4133 121.698 35.648C121.175 35.8827 120.594 36 119.954 36H114.53V24.64H120.386C120.919 24.64 121.378 24.784 121.762 25.072C122.146 25.3493 122.445 25.712 122.658 26.16C122.871 26.608 122.978 27.0667 122.978 27.536C122.978 28.0907 122.834 28.6133 122.546 29.104C122.269 29.584 121.869 29.9413 121.346 30.176C121.986 30.368 122.498 30.72 122.882 31.232C123.266 31.7333 123.458 32.3467 123.458 33.072ZM116.322 26.192V29.536H119.618C120.066 29.536 120.439 29.3813 120.738 29.072C121.037 28.752 121.186 28.352 121.186 27.872C121.186 27.3813 121.047 26.9813 120.77 26.672C120.493 26.352 120.141 26.192 119.714 26.192H116.322ZM121.618 32.736C121.618 32.2667 121.469 31.856 121.17 31.504C120.882 31.152 120.514 30.976 120.066 30.976H116.322V34.448H119.954C120.423 34.448 120.818 34.2827 121.138 33.952C121.458 33.6107 121.618 33.2053 121.618 32.736ZM124.495 33.552C124.495 33.0187 124.644 32.5547 124.943 32.16C125.242 31.7547 125.658 31.4453 126.191 31.232C126.735 31.008 127.359 30.896 128.063 30.896C128.436 30.896 128.815 30.928 129.199 30.992C129.594 31.0453 129.94 31.1253 130.239 31.232V30.704C130.239 30.1173 130.063 29.6587 129.711 29.328C129.359 28.9973 128.852 28.832 128.191 28.832C127.732 28.832 127.29 28.912 126.863 29.072C126.436 29.232 125.994 29.4667 125.535 29.776L124.943 28.592C125.498 28.2293 126.052 27.9573 126.607 27.776C127.172 27.584 127.764 27.488 128.383 27.488C129.503 27.488 130.383 27.7867 131.023 28.384C131.674 28.9707 131.999 29.808 131.999 30.896V34.016C131.999 34.2187 132.031 34.3627 132.095 34.448C132.17 34.5333 132.292 34.5813 132.463 34.592V36C132.303 36.032 132.159 36.0533 132.031 36.064C131.903 36.0747 131.796 36.08 131.711 36.08C131.327 36.08 131.039 35.9893 130.847 35.808C130.666 35.616 130.559 35.4027 130.527 35.168L130.479 34.688C130.116 35.1573 129.652 35.52 129.087 35.776C128.522 36.032 127.951 36.16 127.375 36.16C126.82 36.16 126.324 36.048 125.887 35.824C125.45 35.5893 125.108 35.2747 124.863 34.88C124.618 34.4853 124.495 34.0427 124.495 33.552ZM129.823 34.064C130.1 33.7867 130.239 33.5253 130.239 33.28V32.32C129.61 32.0853 128.97 31.968 128.319 31.968C127.679 31.968 127.156 32.1013 126.751 32.368C126.356 32.624 126.159 32.9707 126.159 33.408C126.159 33.7707 126.303 34.1067 126.591 34.416C126.89 34.7147 127.316 34.864 127.871 34.864C128.244 34.864 128.607 34.7893 128.959 34.64C129.311 34.4907 129.599 34.2987 129.823 34.064ZM134.134 26.256V24.32H135.894V26.256H134.134ZM134.134 36V27.632H135.894V36H134.134ZM139.001 27.632L140.985 30.496L141.129 30.768L141.273 30.496L143.241 27.632H145.145L142.137 31.824L145.177 36H143.273L141.273 33.152L141.129 32.896L140.985 33.152L138.985 36H137.081L140.121 31.84L137.113 27.632H139.001ZM149.738 36.16C148.863 36.16 148.101 35.9627 147.45 35.568C146.81 35.1627 146.314 34.6347 145.962 33.984C145.61 33.3227 145.434 32.6027 145.434 31.824C145.434 31.0453 145.61 30.3307 145.962 29.68C146.325 29.0187 146.826 28.4907 147.466 28.096C148.117 27.6907 148.874 27.488 149.738 27.488C150.602 27.488 151.354 27.6907 151.994 28.096C152.645 28.4907 153.146 29.0187 153.498 29.68C153.861 30.3307 154.042 31.0453 154.042 31.824C154.042 32.6027 153.866 33.3227 153.514 33.984C153.162 34.6347 152.661 35.1627 152.01 35.568C151.37 35.9627 150.613 36.16 149.738 36.16ZM147.242 31.84C147.242 32.3733 147.354 32.8533 147.578 33.28C147.802 33.7067 148.101 34.0427 148.474 34.288C148.847 34.5333 149.269 34.656 149.738 34.656C150.197 34.656 150.613 34.5333 150.986 34.288C151.37 34.032 151.674 33.6907 151.898 33.264C152.122 32.8373 152.234 32.3573 152.234 31.824C152.234 31.2907 152.122 30.8107 151.898 30.384C151.674 29.9573 151.37 29.6213 150.986 29.376C150.613 29.12 150.197 28.992 149.738 28.992C149.279 28.992 148.858 29.12 148.474 29.376C148.101 29.6213 147.802 29.9627 147.578 30.4C147.354 30.8267 147.242 31.3067 147.242 31.84Z" fill="#53565A"/>
<circle cx="100.75" cy="30.5" r="4.5" fill="#43B02A"/>
<path d="M124.082 12V3.904L120.738 10.048H119.682L116.322 3.904V12H114.53V0.639999H116.45L120.21 7.584L123.97 0.639999H125.89V12H124.082ZM131.879 12.16C131.015 12.16 130.258 11.9627 129.607 11.568C128.957 11.1733 128.45 10.6507 128.087 10C127.725 9.33867 127.543 8.61867 127.543 7.84C127.543 7.05067 127.725 6.32533 128.087 5.664C128.45 5.00267 128.957 4.47467 129.607 4.08C130.258 3.68533 131.021 3.488 131.895 3.488C132.77 3.488 133.527 3.69067 134.167 4.096C134.807 4.49067 135.298 5.01333 135.639 5.664C135.991 6.31467 136.167 7.01333 136.167 7.76C136.167 8.02667 136.151 8.24 136.119 8.4H129.415C129.447 8.89067 129.581 9.32267 129.815 9.696C130.061 10.0587 130.365 10.3467 130.727 10.56C131.101 10.7627 131.506 10.864 131.943 10.864C132.413 10.864 132.855 10.7467 133.271 10.512C133.687 10.2773 133.975 9.968 134.135 9.584L135.639 10.016C135.351 10.6453 134.871 11.1627 134.199 11.568C133.538 11.9627 132.765 12.16 131.879 12.16ZM129.367 7.232H134.423C134.381 6.752 134.242 6.33067 134.007 5.968C133.773 5.59467 133.469 5.30667 133.095 5.104C132.733 4.89067 132.327 4.784 131.879 4.784C131.442 4.784 131.037 4.89067 130.663 5.104C130.301 5.30667 130.002 5.59467 129.767 5.968C129.533 6.33067 129.399 6.752 129.367 7.232ZM132.439 2.432L131.287 2.08L132.199 0.32H133.879L132.439 2.432ZM137.075 7.824C137.075 7.024 137.235 6.29867 137.555 5.648C137.886 4.98667 138.334 4.464 138.899 4.08C139.464 3.68533 140.115 3.488 140.851 3.488C141.491 3.488 142.067 3.65333 142.579 3.984C143.102 4.31467 143.507 4.72533 143.795 5.216V0.32H145.555V10.016C145.555 10.2187 145.592 10.3627 145.667 10.448C145.742 10.5333 145.864 10.5813 146.035 10.592V12C145.704 12.0533 145.448 12.08 145.267 12.08C144.936 12.08 144.654 11.9893 144.419 11.808C144.195 11.616 144.078 11.3813 144.067 11.104L144.051 10.48C143.731 11.0133 143.299 11.4293 142.755 11.728C142.211 12.016 141.646 12.16 141.059 12.16C140.291 12.16 139.603 11.9627 138.995 11.568C138.398 11.1733 137.928 10.6507 137.587 10C137.246 9.33867 137.075 8.61333 137.075 7.824ZM143.795 8.992V6.8C143.667 6.45867 143.475 6.15467 143.219 5.888C142.963 5.61067 142.67 5.392 142.339 5.232C142.019 5.072 141.699 4.992 141.379 4.992C140.878 4.992 140.44 5.13067 140.067 5.408C139.704 5.67467 139.416 6.02667 139.203 6.464C139 6.90133 138.899 7.36533 138.899 7.856C138.899 8.368 139.011 8.83733 139.235 9.264C139.47 9.69067 139.784 10.032 140.179 10.288C140.574 10.5333 141.016 10.656 141.507 10.656C141.806 10.656 142.115 10.5867 142.435 10.448C142.766 10.2987 143.054 10.1013 143.299 9.856C143.544 9.6 143.71 9.312 143.795 8.992ZM147.79 2.256V0.32H149.55V2.256H147.79ZM147.79 12V3.632H149.55V12H147.79ZM155.425 12.16C154.551 12.16 153.788 11.9627 153.137 11.568C152.497 11.1627 152.001 10.6347 151.649 9.984C151.297 9.32267 151.121 8.60267 151.121 7.824C151.121 7.04533 151.297 6.33067 151.649 5.68C152.012 5.01867 152.513 4.49067 153.153 4.096C153.804 3.69067 154.561 3.488 155.425 3.488C156.289 3.488 157.041 3.69067 157.681 4.096C158.332 4.49067 158.833 5.01867 159.185 5.68C159.548 6.33067 159.729 7.04533 159.729 7.824C159.729 8.60267 159.553 9.32267 159.201 9.984C158.849 10.6347 158.348 11.1627 157.697 11.568C157.057 11.9627 156.3 12.16 155.425 12.16ZM152.929 7.84C152.929 8.37333 153.041 8.85333 153.265 9.28C153.489 9.70667 153.788 10.0427 154.161 10.288C154.535 10.5333 154.956 10.656 155.425 10.656C155.884 10.656 156.3 10.5333 156.673 10.288C157.057 10.032 157.361 9.69067 157.585 9.264C157.809 8.83733 157.921 8.35733 157.921 7.824C157.921 7.29067 157.809 6.81067 157.585 6.384C157.361 5.95733 157.057 5.62133 156.673 5.376C156.3 5.12 155.884 4.992 155.425 4.992C154.967 4.992 154.545 5.12 154.161 5.376C153.788 5.62133 153.489 5.96267 153.265 6.4C153.041 6.82667 152.929 7.30667 152.929 7.84Z" fill="#53565A"/>
<circle cx="100.75" cy="6.5" r="4.5" fill="#FFCD00"/>
<path d="M21.81 24.64H23.506L27.922 36H26.034L24.834 32.912H20.45L19.266 36H17.362L21.81 24.64ZM24.482 31.584L22.658 26.608L20.77 31.584H24.482ZM29.1033 24.32H30.8633V33.584C30.8633 34.0107 30.9273 34.2827 31.0553 34.4C31.1833 34.5173 31.3433 34.576 31.5353 34.576C31.7486 34.576 31.9513 34.5547 32.1432 34.512C32.3353 34.4693 32.4953 34.416 32.6233 34.352L32.8793 35.744C32.6233 35.8507 32.3193 35.9413 31.9673 36.016C31.6153 36.0907 31.3006 36.128 31.0233 36.128C30.4259 36.128 29.9566 35.9627 29.6153 35.632C29.2739 35.2907 29.1033 34.8213 29.1033 34.224V24.32ZM38.5089 35.568C38.2849 35.6747 37.9755 35.7973 37.5809 35.936C37.1862 36.064 36.7649 36.128 36.3169 36.128C35.7622 36.128 35.2822 35.9787 34.8769 35.68C34.4822 35.3813 34.2849 34.896 34.2849 34.224V28.992H33.1809V27.632H34.2849V24.88H36.0449V27.632H37.8689V28.992H36.0449V33.664C36.0662 33.9627 36.1569 34.1813 36.3169 34.32C36.4875 34.448 36.6955 34.512 36.9409 34.512C37.1862 34.512 37.4209 34.4693 37.6449 34.384C37.8689 34.2987 38.0342 34.2293 38.1409 34.176L38.5089 35.568ZM43.3785 36.16C42.5038 36.16 41.7412 35.9627 41.0905 35.568C40.4505 35.1627 39.9545 34.6347 39.6025 33.984C39.2505 33.3227 39.0745 32.6027 39.0745 31.824C39.0745 31.0453 39.2505 30.3307 39.6025 29.68C39.9652 29.0187 40.4665 28.4907 41.1065 28.096C41.7572 27.6907 42.5145 27.488 43.3785 27.488C44.2425 27.488 44.9945 27.6907 45.6345 28.096C46.2852 28.4907 46.7865 29.0187 47.1385 29.68C47.5012 30.3307 47.6825 31.0453 47.6825 31.824C47.6825 32.6027 47.5065 33.3227 47.1545 33.984C46.8025 34.6347 46.3012 35.1627 45.6505 35.568C45.0105 35.9627 44.2532 36.16 43.3785 36.16ZM40.8825 31.84C40.8825 32.3733 40.9945 32.8533 41.2185 33.28C41.4425 33.7067 41.7412 34.0427 42.1145 34.288C42.4878 34.5333 42.9092 34.656 43.3785 34.656C43.8372 34.656 44.2532 34.5333 44.6265 34.288C45.0105 34.032 45.3145 33.6907 45.5385 33.264C45.7625 32.8373 45.8745 32.3573 45.8745 31.824C45.8745 31.2907 45.7625 30.8107 45.5385 30.384C45.3145 29.9573 45.0105 29.6213 44.6265 29.376C44.2532 29.12 43.8372 28.992 43.3785 28.992C42.9198 28.992 42.4985 29.12 42.1145 29.376C41.7412 29.6213 41.4425 29.9627 41.2185 30.4C40.9945 30.8267 40.8825 31.3067 40.8825 31.84Z" fill="#53565A"/>
<circle cx="4.75" cy="30.5" r="4.5" fill="#EF6F6C"/>
<path d="M17.81 6.24C17.81 5.54667 17.9327 4.864 18.178 4.192C18.4233 3.52 18.7807 2.912 19.25 2.368C19.73 1.824 20.306 1.392 20.978 1.072C21.6607 0.741333 22.4393 0.575999 23.314 0.575999C24.338 0.575999 25.2233 0.805333 25.97 1.264C26.7167 1.72267 27.2713 2.32 27.634 3.056L26.226 4C26.0127 3.54133 25.7407 3.184 25.41 2.928C25.09 2.66133 24.738 2.47467 24.354 2.368C23.9807 2.25067 23.6127 2.192 23.25 2.192C22.6527 2.192 22.13 2.31467 21.682 2.56C21.234 2.79467 20.8553 3.10933 20.546 3.504C20.2473 3.89867 20.018 4.34133 19.858 4.832C19.7087 5.32267 19.634 5.81333 19.634 6.304C19.634 7.04 19.7887 7.728 20.098 8.368C20.418 8.99733 20.85 9.50933 21.394 9.904C21.9487 10.288 22.5833 10.48 23.298 10.48C23.6607 10.48 24.0393 10.416 24.434 10.288C24.8287 10.16 25.1913 9.96267 25.522 9.696C25.8527 9.41867 26.1193 9.056 26.322 8.608L27.81 9.456C27.5753 10.0213 27.2073 10.5013 26.706 10.896C26.2153 11.2907 25.6607 11.5893 25.042 11.792C24.434 11.9947 23.8313 12.096 23.234 12.096C22.434 12.096 21.7033 11.9307 21.042 11.6C20.3807 11.2587 19.81 10.8107 19.33 10.256C18.85 9.69067 18.4767 9.06133 18.21 8.368C17.9433 7.664 17.81 6.95467 17.81 6.24ZM33.9475 5.152C33.2648 5.17333 32.6568 5.33333 32.1235 5.632C31.6008 5.92 31.2275 6.336 31.0035 6.88V12H29.2435V3.632H30.8755V5.504C31.1635 4.928 31.5422 4.46933 32.0115 4.128C32.4808 3.776 32.9768 3.584 33.4995 3.552C33.5955 3.552 33.6808 3.552 33.7555 3.552C33.8302 3.552 33.8942 3.55733 33.9475 3.568V5.152ZM35.2279 12V3.632H36.9879V12H35.2279ZM36.7159 2.432L35.5639 2.08L36.4759 0.32H38.1559L36.7159 2.432ZM43.7589 11.568C43.5349 11.6747 43.2255 11.7973 42.8309 11.936C42.4362 12.064 42.0149 12.128 41.5669 12.128C41.0122 12.128 40.5322 11.9787 40.1269 11.68C39.7322 11.3813 39.5349 10.896 39.5349 10.224V4.992H38.4309V3.632H39.5349V0.879999H41.2949V3.632H43.1189V4.992H41.2949V9.664C41.3162 9.96267 41.4069 10.1813 41.5669 10.32C41.7375 10.448 41.9455 10.512 42.1909 10.512C42.4362 10.512 42.6709 10.4693 42.8949 10.384C43.1189 10.2987 43.2842 10.2293 43.3909 10.176L43.7589 11.568ZM44.9779 2.256V0.32H46.7379V2.256H44.9779ZM44.9779 12V3.632H46.7379V12H44.9779ZM52.6449 12.16C51.7809 12.16 51.0235 11.9627 50.3729 11.568C49.7222 11.1627 49.2155 10.6293 48.8529 9.968C48.4902 9.30667 48.3089 8.58667 48.3089 7.808C48.3089 7.02933 48.4849 6.31467 48.8369 5.664C49.1995 5.00267 49.7009 4.47467 50.3409 4.08C50.9915 3.68533 51.7595 3.488 52.6449 3.488C53.5089 3.488 54.2502 3.68 54.8689 4.064C55.4982 4.43733 55.9675 4.93867 56.2769 5.568L54.5649 6.112C54.3729 5.76 54.1009 5.488 53.7489 5.296C53.4075 5.09333 53.0289 4.992 52.6129 4.992C52.1435 4.992 51.7169 5.11467 51.3329 5.36C50.9595 5.59467 50.6609 5.92533 50.4369 6.352C50.2235 6.77867 50.1169 7.264 50.1169 7.808C50.1169 8.352 50.2289 8.83733 50.4529 9.264C50.6875 9.69067 50.9915 10.032 51.3649 10.288C51.7489 10.5333 52.1702 10.656 52.6289 10.656C53.0555 10.656 53.4609 10.544 53.8449 10.32C54.2289 10.096 54.4849 9.824 54.6129 9.504L56.3409 10.016C56.0635 10.6453 55.5995 11.1627 54.9489 11.568C54.2982 11.9627 53.5302 12.16 52.6449 12.16ZM61.4723 12.16C60.5976 12.16 59.8349 11.9627 59.1843 11.568C58.5443 11.1627 58.0483 10.6347 57.6963 9.984C57.3443 9.32267 57.1683 8.60267 57.1683 7.824C57.1683 7.04533 57.3443 6.33067 57.6963 5.68C58.0589 5.01867 58.5603 4.49067 59.2003 4.096C59.8509 3.69067 60.6083 3.488 61.4723 3.488C62.3363 3.488 63.0883 3.69067 63.7283 4.096C64.3789 4.49067 64.8803 5.01867 65.2323 5.68C65.5949 6.33067 65.7763 7.04533 65.7763 7.824C65.7763 8.60267 65.6003 9.32267 65.2483 9.984C64.8963 10.6347 64.3949 11.1627 63.7443 11.568C63.1043 11.9627 62.3469 12.16 61.4723 12.16ZM58.9763 7.84C58.9763 8.37333 59.0883 8.85333 59.3123 9.28C59.5363 9.70667 59.8349 10.0427 60.2083 10.288C60.5816 10.5333 61.0029 10.656 61.4723 10.656C61.9309 10.656 62.3469 10.5333 62.7203 10.288C63.1043 10.032 63.4083 9.69067 63.6323 9.264C63.8563 8.83733 63.9683 8.35733 63.9683 7.824C63.9683 7.29067 63.8563 6.81067 63.6323 6.384C63.4083 5.95733 63.1043 5.62133 62.7203 5.376C62.3469 5.12 61.9309 4.992 61.4723 4.992C61.0136 4.992 60.5923 5.12 60.2083 5.376C59.8349 5.62133 59.5363 5.96267 59.3123 6.4C59.0883 6.82667 58.9763 7.30667 58.9763 7.84Z" fill="#53565A"/>
<circle cx="4.75" cy="6.5" r="4.5" fill="#53565A"/>
</svg>
