<svg width="328" height="61" viewBox="0 0 328 61" fill="none" xmlns="http://www.w3.org/2000/svg">
<path d="M198.25 48.64L201.386 53.104L204.522 48.64H206.506L202.41 54.4L206.378 60H204.394L201.386 55.696L198.378 60H196.378L200.346 54.4L196.25 48.64H198.25ZM208.5 48.64L211.636 53.104L214.772 48.64H216.756L212.66 54.4L216.628 60H214.644L211.636 55.696L208.628 60H206.628L210.596 54.4L206.5 48.64H208.5ZM221.059 55.824C221.059 55.024 221.219 54.2987 221.539 53.648C221.87 52.9867 222.318 52.464 222.883 52.08C223.449 51.6853 224.099 51.488 224.835 51.488C225.475 51.488 226.051 51.6533 226.563 51.984C227.086 52.3147 227.491 52.7253 227.779 53.216V48.32H229.539V58.016C229.539 58.2187 229.577 58.3627 229.651 58.448C229.726 58.5333 229.849 58.5813 230.019 58.592V60C229.689 60.0533 229.433 60.08 229.251 60.08C228.921 60.08 228.638 59.9893 228.403 59.808C228.179 59.616 228.062 59.3813 228.051 59.104L228.035 58.48C227.715 59.0133 227.283 59.4293 226.739 59.728C226.195 60.016 225.63 60.16 225.043 60.16C224.275 60.16 223.587 59.9627 222.979 59.568C222.382 59.1733 221.913 58.6507 221.571 58C221.23 57.3387 221.059 56.6133 221.059 55.824ZM227.779 56.992V54.8C227.651 54.4587 227.459 54.1547 227.203 53.888C226.947 53.6107 226.654 53.392 226.323 53.232C226.003 53.072 225.683 52.992 225.363 52.992C224.862 52.992 224.425 53.1307 224.051 53.408C223.689 53.6747 223.401 54.0267 223.187 54.464C222.985 54.9013 222.883 55.3653 222.883 55.856C222.883 56.368 222.995 56.8373 223.219 57.264C223.454 57.6907 223.769 58.032 224.163 58.288C224.558 58.5333 225.001 58.656 225.491 58.656C225.79 58.656 226.099 58.5867 226.419 58.448C226.75 58.2987 227.038 58.1013 227.283 57.856C227.529 57.6 227.694 57.312 227.779 56.992ZM231.775 50.256V48.32H233.535V50.256H231.775ZM231.775 60V51.632H233.535V60H231.775ZM235.042 57.552C235.042 57.0187 235.191 56.5547 235.49 56.16C235.788 55.7547 236.204 55.4453 236.738 55.232C237.282 55.008 237.906 54.896 238.61 54.896C238.983 54.896 239.362 54.928 239.746 54.992C240.14 55.0453 240.487 55.1253 240.786 55.232V54.704C240.786 54.1173 240.61 53.6587 240.258 53.328C239.906 52.9973 239.399 52.832 238.738 52.832C238.279 52.832 237.836 52.912 237.41 53.072C236.983 53.232 236.54 53.4667 236.082 53.776L235.49 52.592C236.044 52.2293 236.599 51.9573 237.154 51.776C237.719 51.584 238.311 51.488 238.93 51.488C240.05 51.488 240.93 51.7867 241.57 52.384C242.22 52.9707 242.546 53.808 242.546 54.896V58.016C242.546 58.2187 242.578 58.3627 242.642 58.448C242.716 58.5333 242.839 58.5813 243.01 58.592V60C242.85 60.032 242.706 60.0533 242.578 60.064C242.45 60.0747 242.343 60.08 242.258 60.08C241.874 60.08 241.586 59.9893 241.394 59.808C241.212 59.616 241.106 59.4027 241.074 59.168L241.026 58.688C240.663 59.1573 240.199 59.52 239.634 59.776C239.068 60.032 238.498 60.16 237.922 60.16C237.367 60.16 236.871 60.048 236.434 59.824C235.996 59.5893 235.655 59.2747 235.41 58.88C235.164 58.4853 235.042 58.0427 235.042 57.552ZM240.37 58.064C240.647 57.7867 240.786 57.5253 240.786 57.28V56.32C240.156 56.0853 239.516 55.968 238.866 55.968C238.226 55.968 237.703 56.1013 237.298 56.368C236.903 56.624 236.706 56.9707 236.706 57.408C236.706 57.7707 236.85 58.1067 237.138 58.416C237.436 58.7147 237.863 58.864 238.418 58.864C238.791 58.864 239.154 58.7893 239.506 58.64C239.858 58.4907 240.146 58.2987 240.37 58.064ZM247.657 60.16C246.953 60.16 246.286 60.0427 245.657 59.808C245.028 59.5733 244.489 59.232 244.041 58.784L244.697 57.6C245.177 58.0267 245.657 58.336 246.137 58.528C246.617 58.72 247.102 58.816 247.593 58.816C248.084 58.816 248.484 58.7253 248.793 58.544C249.102 58.352 249.257 58.0747 249.257 57.712C249.257 57.456 249.177 57.2587 249.017 57.12C248.857 56.9813 248.622 56.8693 248.313 56.784C248.014 56.6987 247.652 56.592 247.225 56.464C246.628 56.2827 246.126 56.096 245.721 55.904C245.316 55.7013 245.012 55.456 244.809 55.168C244.606 54.88 244.505 54.512 244.505 54.064C244.505 53.2533 244.809 52.624 245.417 52.176C246.025 51.7173 246.82 51.488 247.801 51.488C248.409 51.488 248.969 51.584 249.481 51.776C250.004 51.9573 250.462 52.2453 250.857 52.64L250.105 53.808C249.38 53.1467 248.58 52.816 247.705 52.816C247.321 52.816 246.964 52.8907 246.633 53.04C246.313 53.1893 246.153 53.4667 246.153 53.872C246.153 54.2133 246.297 54.4587 246.585 54.608C246.873 54.7573 247.3 54.9173 247.865 55.088C248.505 55.28 249.054 55.472 249.513 55.664C249.982 55.8453 250.34 56.0853 250.585 56.384C250.841 56.672 250.969 57.072 250.969 57.584C250.969 58.3947 250.665 59.0293 250.057 59.488C249.449 59.936 248.649 60.16 247.657 60.16Z" fill="#53565A"/>
<circle cx="183.75" cy="54.5" r="4.5" fill="#9DD4CF"/>
<path d="M198.25 24.64L201.386 29.104L204.522 24.64H206.506L202.41 30.4L206.378 36H204.394L201.386 31.696L198.378 36H196.378L200.346 30.4L196.25 24.64H198.25ZM208.5 24.64L211.636 29.104L214.772 24.64H216.756L212.66 30.4L216.628 36H214.644L211.636 31.696L208.628 36H206.628L210.596 30.4L206.5 24.64H208.5ZM221.059 31.824C221.059 31.024 221.219 30.2987 221.539 29.648C221.87 28.9867 222.318 28.464 222.883 28.08C223.449 27.6853 224.099 27.488 224.835 27.488C225.475 27.488 226.051 27.6533 226.563 27.984C227.086 28.3147 227.491 28.7253 227.779 29.216V24.32H229.539V34.016C229.539 34.2187 229.577 34.3627 229.651 34.448C229.726 34.5333 229.849 34.5813 230.019 34.592V36C229.689 36.0533 229.433 36.08 229.251 36.08C228.921 36.08 228.638 35.9893 228.403 35.808C228.179 35.616 228.062 35.3813 228.051 35.104L228.035 34.48C227.715 35.0133 227.283 35.4293 226.739 35.728C226.195 36.016 225.63 36.16 225.043 36.16C224.275 36.16 223.587 35.9627 222.979 35.568C222.382 35.1733 221.913 34.6507 221.571 34C221.23 33.3387 221.059 32.6133 221.059 31.824ZM227.779 32.992V30.8C227.651 30.4587 227.459 30.1547 227.203 29.888C226.947 29.6107 226.654 29.392 226.323 29.232C226.003 29.072 225.683 28.992 225.363 28.992C224.862 28.992 224.425 29.1307 224.051 29.408C223.689 29.6747 223.401 30.0267 223.187 30.464C222.985 30.9013 222.883 31.3653 222.883 31.856C222.883 32.368 222.995 32.8373 223.219 33.264C223.454 33.6907 223.769 34.032 224.163 34.288C224.558 34.5333 225.001 34.656 225.491 34.656C225.79 34.656 226.099 34.5867 226.419 34.448C226.75 34.2987 227.038 34.1013 227.283 33.856C227.529 33.6 227.694 33.312 227.779 32.992ZM231.775 26.256V24.32H233.535V26.256H231.775ZM231.775 36V27.632H233.535V36H231.775ZM235.042 33.552C235.042 33.0187 235.191 32.5547 235.49 32.16C235.788 31.7547 236.204 31.4453 236.738 31.232C237.282 31.008 237.906 30.896 238.61 30.896C238.983 30.896 239.362 30.928 239.746 30.992C240.14 31.0453 240.487 31.1253 240.786 31.232V30.704C240.786 30.1173 240.61 29.6587 240.258 29.328C239.906 28.9973 239.399 28.832 238.738 28.832C238.279 28.832 237.836 28.912 237.41 29.072C236.983 29.232 236.54 29.4667 236.082 29.776L235.49 28.592C236.044 28.2293 236.599 27.9573 237.154 27.776C237.719 27.584 238.311 27.488 238.93 27.488C240.05 27.488 240.93 27.7867 241.57 28.384C242.22 28.9707 242.546 29.808 242.546 30.896V34.016C242.546 34.2187 242.578 34.3627 242.642 34.448C242.716 34.5333 242.839 34.5813 243.01 34.592V36C242.85 36.032 242.706 36.0533 242.578 36.064C242.45 36.0747 242.343 36.08 242.258 36.08C241.874 36.08 241.586 35.9893 241.394 35.808C241.212 35.616 241.106 35.4027 241.074 35.168L241.026 34.688C240.663 35.1573 240.199 35.52 239.634 35.776C239.068 36.032 238.498 36.16 237.922 36.16C237.367 36.16 236.871 36.048 236.434 35.824C235.996 35.5893 235.655 35.2747 235.41 34.88C235.164 34.4853 235.042 34.0427 235.042 33.552ZM240.37 34.064C240.647 33.7867 240.786 33.5253 240.786 33.28V32.32C240.156 32.0853 239.516 31.968 238.866 31.968C238.226 31.968 237.703 32.1013 237.298 32.368C236.903 32.624 236.706 32.9707 236.706 33.408C236.706 33.7707 236.85 34.1067 237.138 34.416C237.436 34.7147 237.863 34.864 238.418 34.864C238.791 34.864 239.154 34.7893 239.506 34.64C239.858 34.4907 240.146 34.2987 240.37 34.064ZM247.657 36.16C246.953 36.16 246.286 36.0427 245.657 35.808C245.028 35.5733 244.489 35.232 244.041 34.784L244.697 33.6C245.177 34.0267 245.657 34.336 246.137 34.528C246.617 34.72 247.102 34.816 247.593 34.816C248.084 34.816 248.484 34.7253 248.793 34.544C249.102 34.352 249.257 34.0747 249.257 33.712C249.257 33.456 249.177 33.2587 249.017 33.12C248.857 32.9813 248.622 32.8693 248.313 32.784C248.014 32.6987 247.652 32.592 247.225 32.464C246.628 32.2827 246.126 32.096 245.721 31.904C245.316 31.7013 245.012 31.456 244.809 31.168C244.606 30.88 244.505 30.512 244.505 30.064C244.505 29.2533 244.809 28.624 245.417 28.176C246.025 27.7173 246.82 27.488 247.801 27.488C248.409 27.488 248.969 27.584 249.481 27.776C250.004 27.9573 250.462 28.2453 250.857 28.64L250.105 29.808C249.38 29.1467 248.58 28.816 247.705 28.816C247.321 28.816 246.964 28.8907 246.633 29.04C246.313 29.1893 246.153 29.4667 246.153 29.872C246.153 30.2133 246.297 30.4587 246.585 30.608C246.873 30.7573 247.3 30.9173 247.865 31.088C248.505 31.28 249.054 31.472 249.513 31.664C249.982 31.8453 250.34 32.0853 250.585 32.384C250.841 32.672 250.969 33.072 250.969 33.584C250.969 34.3947 250.665 35.0293 250.057 35.488C249.449 35.936 248.649 36.16 247.657 36.16Z" fill="#53565A"/>
<circle cx="183.75" cy="30.5" r="4.5" fill="#00A3E0"/>
<path d="M87.25 48.64L90.386 53.104L93.522 48.64H95.506L91.41 54.4L95.378 60H93.394L90.386 55.696L87.378 60H85.378L89.346 54.4L85.25 48.64H87.25ZM97.5 48.64L100.636 53.104L103.772 48.64H105.756L101.66 54.4L105.628 60H103.644L100.636 55.696L97.628 60H95.628L99.596 54.4L95.5 48.64H97.5ZM110.059 55.824C110.059 55.024 110.219 54.2987 110.539 53.648C110.87 52.9867 111.318 52.464 111.883 52.08C112.449 51.6853 113.099 51.488 113.835 51.488C114.475 51.488 115.051 51.6533 115.563 51.984C116.086 52.3147 116.491 52.7253 116.779 53.216V48.32H118.539V58.016C118.539 58.2187 118.577 58.3627 118.651 58.448C118.726 58.5333 118.849 58.5813 119.019 58.592V60C118.689 60.0533 118.433 60.08 118.251 60.08C117.921 60.08 117.638 59.9893 117.403 59.808C117.179 59.616 117.062 59.3813 117.051 59.104L117.035 58.48C116.715 59.0133 116.283 59.4293 115.739 59.728C115.195 60.016 114.63 60.16 114.043 60.16C113.275 60.16 112.587 59.9627 111.979 59.568C111.382 59.1733 110.913 58.6507 110.571 58C110.23 57.3387 110.059 56.6133 110.059 55.824ZM116.779 56.992V54.8C116.651 54.4587 116.459 54.1547 116.203 53.888C115.947 53.6107 115.654 53.392 115.323 53.232C115.003 53.072 114.683 52.992 114.363 52.992C113.862 52.992 113.425 53.1307 113.051 53.408C112.689 53.6747 112.401 54.0267 112.187 54.464C111.985 54.9013 111.883 55.3653 111.883 55.856C111.883 56.368 111.995 56.8373 112.219 57.264C112.454 57.6907 112.769 58.032 113.163 58.288C113.558 58.5333 114.001 58.656 114.491 58.656C114.79 58.656 115.099 58.5867 115.419 58.448C115.75 58.2987 116.038 58.1013 116.283 57.856C116.529 57.6 116.694 57.312 116.779 56.992ZM120.775 50.256V48.32H122.535V50.256H120.775ZM120.775 60V51.632H122.535V60H120.775ZM124.042 57.552C124.042 57.0187 124.191 56.5547 124.49 56.16C124.788 55.7547 125.204 55.4453 125.738 55.232C126.282 55.008 126.906 54.896 127.61 54.896C127.983 54.896 128.362 54.928 128.746 54.992C129.14 55.0453 129.487 55.1253 129.786 55.232V54.704C129.786 54.1173 129.61 53.6587 129.258 53.328C128.906 52.9973 128.399 52.832 127.738 52.832C127.279 52.832 126.836 52.912 126.41 53.072C125.983 53.232 125.54 53.4667 125.082 53.776L124.49 52.592C125.044 52.2293 125.599 51.9573 126.154 51.776C126.719 51.584 127.311 51.488 127.93 51.488C129.05 51.488 129.93 51.7867 130.57 52.384C131.22 52.9707 131.546 53.808 131.546 54.896V58.016C131.546 58.2187 131.578 58.3627 131.642 58.448C131.716 58.5333 131.839 58.5813 132.01 58.592V60C131.85 60.032 131.706 60.0533 131.578 60.064C131.45 60.0747 131.343 60.08 131.258 60.08C130.874 60.08 130.586 59.9893 130.394 59.808C130.212 59.616 130.106 59.4027 130.074 59.168L130.026 58.688C129.663 59.1573 129.199 59.52 128.634 59.776C128.068 60.032 127.498 60.16 126.922 60.16C126.367 60.16 125.871 60.048 125.434 59.824C124.996 59.5893 124.655 59.2747 124.41 58.88C124.164 58.4853 124.042 58.0427 124.042 57.552ZM129.37 58.064C129.647 57.7867 129.786 57.5253 129.786 57.28V56.32C129.156 56.0853 128.516 55.968 127.866 55.968C127.226 55.968 126.703 56.1013 126.298 56.368C125.903 56.624 125.706 56.9707 125.706 57.408C125.706 57.7707 125.85 58.1067 126.138 58.416C126.436 58.7147 126.863 58.864 127.418 58.864C127.791 58.864 128.154 58.7893 128.506 58.64C128.858 58.4907 129.146 58.2987 129.37 58.064ZM136.657 60.16C135.953 60.16 135.286 60.0427 134.657 59.808C134.028 59.5733 133.489 59.232 133.041 58.784L133.697 57.6C134.177 58.0267 134.657 58.336 135.137 58.528C135.617 58.72 136.102 58.816 136.593 58.816C137.084 58.816 137.484 58.7253 137.793 58.544C138.102 58.352 138.257 58.0747 138.257 57.712C138.257 57.456 138.177 57.2587 138.017 57.12C137.857 56.9813 137.622 56.8693 137.313 56.784C137.014 56.6987 136.652 56.592 136.225 56.464C135.628 56.2827 135.126 56.096 134.721 55.904C134.316 55.7013 134.012 55.456 133.809 55.168C133.606 54.88 133.505 54.512 133.505 54.064C133.505 53.2533 133.809 52.624 134.417 52.176C135.025 51.7173 135.82 51.488 136.801 51.488C137.409 51.488 137.969 51.584 138.481 51.776C139.004 51.9573 139.462 52.2453 139.857 52.64L139.105 53.808C138.38 53.1467 137.58 52.816 136.705 52.816C136.321 52.816 135.964 52.8907 135.633 53.04C135.313 53.1893 135.153 53.4667 135.153 53.872C135.153 54.2133 135.297 54.4587 135.585 54.608C135.873 54.7573 136.3 54.9173 136.865 55.088C137.505 55.28 138.054 55.472 138.513 55.664C138.982 55.8453 139.34 56.0853 139.585 56.384C139.841 56.672 139.969 57.072 139.969 57.584C139.969 58.3947 139.665 59.0293 139.057 59.488C138.449 59.936 137.649 60.16 136.657 60.16Z" fill="#53565A"/>
<circle cx="72.75" cy="54.5" r="4.5" fill="#A0DCFF"/>
<path d="M87.25 24.64L90.386 29.104L93.522 24.64H95.506L91.41 30.4L95.378 36H93.394L90.386 31.696L87.378 36H85.378L89.346 30.4L85.25 24.64H87.25ZM97.5 24.64L100.636 29.104L103.772 24.64H105.756L101.66 30.4L105.628 36H103.644L100.636 31.696L97.628 36H95.628L99.596 30.4L95.5 24.64H97.5ZM110.059 31.824C110.059 31.024 110.219 30.2987 110.539 29.648C110.87 28.9867 111.318 28.464 111.883 28.08C112.449 27.6853 113.099 27.488 113.835 27.488C114.475 27.488 115.051 27.6533 115.563 27.984C116.086 28.3147 116.491 28.7253 116.779 29.216V24.32H118.539V34.016C118.539 34.2187 118.577 34.3627 118.651 34.448C118.726 34.5333 118.849 34.5813 119.019 34.592V36C118.689 36.0533 118.433 36.08 118.251 36.08C117.921 36.08 117.638 35.9893 117.403 35.808C117.179 35.616 117.062 35.3813 117.051 35.104L117.035 34.48C116.715 35.0133 116.283 35.4293 115.739 35.728C115.195 36.016 114.63 36.16 114.043 36.16C113.275 36.16 112.587 35.9627 111.979 35.568C111.382 35.1733 110.913 34.6507 110.571 34C110.23 33.3387 110.059 32.6133 110.059 31.824ZM116.779 32.992V30.8C116.651 30.4587 116.459 30.1547 116.203 29.888C115.947 29.6107 115.654 29.392 115.323 29.232C115.003 29.072 114.683 28.992 114.363 28.992C113.862 28.992 113.425 29.1307 113.051 29.408C112.689 29.6747 112.401 30.0267 112.187 30.464C111.985 30.9013 111.883 31.3653 111.883 31.856C111.883 32.368 111.995 32.8373 112.219 33.264C112.454 33.6907 112.769 34.032 113.163 34.288C113.558 34.5333 114.001 34.656 114.491 34.656C114.79 34.656 115.099 34.5867 115.419 34.448C115.75 34.2987 116.038 34.1013 116.283 33.856C116.529 33.6 116.694 33.312 116.779 32.992ZM120.775 26.256V24.32H122.535V26.256H120.775ZM120.775 36V27.632H122.535V36H120.775ZM124.042 33.552C124.042 33.0187 124.191 32.5547 124.49 32.16C124.788 31.7547 125.204 31.4453 125.738 31.232C126.282 31.008 126.906 30.896 127.61 30.896C127.983 30.896 128.362 30.928 128.746 30.992C129.14 31.0453 129.487 31.1253 129.786 31.232V30.704C129.786 30.1173 129.61 29.6587 129.258 29.328C128.906 28.9973 128.399 28.832 127.738 28.832C127.279 28.832 126.836 28.912 126.41 29.072C125.983 29.232 125.54 29.4667 125.082 29.776L124.49 28.592C125.044 28.2293 125.599 27.9573 126.154 27.776C126.719 27.584 127.311 27.488 127.93 27.488C129.05 27.488 129.93 27.7867 130.57 28.384C131.22 28.9707 131.546 29.808 131.546 30.896V34.016C131.546 34.2187 131.578 34.3627 131.642 34.448C131.716 34.5333 131.839 34.5813 132.01 34.592V36C131.85 36.032 131.706 36.0533 131.578 36.064C131.45 36.0747 131.343 36.08 131.258 36.08C130.874 36.08 130.586 35.9893 130.394 35.808C130.212 35.616 130.106 35.4027 130.074 35.168L130.026 34.688C129.663 35.1573 129.199 35.52 128.634 35.776C128.068 36.032 127.498 36.16 126.922 36.16C126.367 36.16 125.871 36.048 125.434 35.824C124.996 35.5893 124.655 35.2747 124.41 34.88C124.164 34.4853 124.042 34.0427 124.042 33.552ZM129.37 34.064C129.647 33.7867 129.786 33.5253 129.786 33.28V32.32C129.156 32.0853 128.516 31.968 127.866 31.968C127.226 31.968 126.703 32.1013 126.298 32.368C125.903 32.624 125.706 32.9707 125.706 33.408C125.706 33.7707 125.85 34.1067 126.138 34.416C126.436 34.7147 126.863 34.864 127.418 34.864C127.791 34.864 128.154 34.7893 128.506 34.64C128.858 34.4907 129.146 34.2987 129.37 34.064ZM136.657 36.16C135.953 36.16 135.286 36.0427 134.657 35.808C134.028 35.5733 133.489 35.232 133.041 34.784L133.697 33.6C134.177 34.0267 134.657 34.336 135.137 34.528C135.617 34.72 136.102 34.816 136.593 34.816C137.084 34.816 137.484 34.7253 137.793 34.544C138.102 34.352 138.257 34.0747 138.257 33.712C138.257 33.456 138.177 33.2587 138.017 33.12C137.857 32.9813 137.622 32.8693 137.313 32.784C137.014 32.6987 136.652 32.592 136.225 32.464C135.628 32.2827 135.126 32.096 134.721 31.904C134.316 31.7013 134.012 31.456 133.809 31.168C133.606 30.88 133.505 30.512 133.505 30.064C133.505 29.2533 133.809 28.624 134.417 28.176C135.025 27.7173 135.82 27.488 136.801 27.488C137.409 27.488 137.969 27.584 138.481 27.776C139.004 27.9573 139.462 28.2453 139.857 28.64L139.105 29.808C138.38 29.1467 137.58 28.816 136.705 28.816C136.321 28.816 135.964 28.8907 135.633 29.04C135.313 29.1893 135.153 29.4667 135.153 29.872C135.153 30.2133 135.297 30.4587 135.585 30.608C135.873 30.7573 136.3 30.9173 136.865 31.088C137.505 31.28 138.054 31.472 138.513 31.664C138.982 31.8453 139.34 32.0853 139.585 32.384C139.841 32.672 139.969 33.072 139.969 33.584C139.969 34.3947 139.665 35.0293 139.057 35.488C138.449 35.936 137.649 36.16 136.657 36.16Z" fill="#53565A"/>
<circle cx="72.75" cy="30.5" r="4.5" fill="#0D8390"/>
<path d="M113.376 1.06L116.372 9.082L119.354 1.06H121.02L117.114 11H115.63L111.71 1.06H113.376ZM124.399 11.14C123.643 11.14 122.981 10.9673 122.411 10.622C121.842 10.2767 121.399 9.81933 121.081 9.25C120.764 8.67133 120.605 8.04133 120.605 7.36C120.605 6.66933 120.764 6.03467 121.081 5.456C121.399 4.87733 121.842 4.41533 122.411 4.07C122.981 3.72467 123.648 3.552 124.413 3.552C125.179 3.552 125.841 3.72933 126.401 4.084C126.961 4.42933 127.391 4.88667 127.689 5.456C127.997 6.02533 128.151 6.63667 128.151 7.29C128.151 7.52333 128.137 7.71 128.109 7.85H122.243C122.271 8.27933 122.388 8.65733 122.593 8.984C122.808 9.30133 123.074 9.55333 123.391 9.74C123.718 9.91733 124.073 10.006 124.455 10.006C124.866 10.006 125.253 9.90333 125.617 9.698C125.981 9.49267 126.233 9.222 126.373 8.886L127.689 9.264C127.437 9.81467 127.017 10.2673 126.429 10.622C125.851 10.9673 125.174 11.14 124.399 11.14ZM122.201 6.828H126.625C126.588 6.408 126.467 6.03933 126.261 5.722C126.056 5.39533 125.79 5.14333 125.463 4.966C125.146 4.77933 124.791 4.686 124.399 4.686C124.017 4.686 123.662 4.77933 123.335 4.966C123.018 5.14333 122.757 5.39533 122.551 5.722C122.346 6.03933 122.229 6.408 122.201 6.828ZM135.973 11H134.433V6.898C134.433 6.20733 134.321 5.708 134.097 5.4C133.883 5.08267 133.561 4.924 133.131 4.924C132.833 4.924 132.534 4.99867 132.235 5.148C131.946 5.29733 131.685 5.50267 131.451 5.764C131.218 6.02533 131.05 6.31933 130.947 6.646V11H129.407V3.678H130.807V5.148C131.087 4.66267 131.493 4.27533 132.025 3.986C132.557 3.69667 133.145 3.552 133.789 3.552C134.368 3.552 134.816 3.692 135.133 3.972C135.451 4.24267 135.67 4.602 135.791 5.05C135.913 5.498 135.973 5.99267 135.973 6.534V11ZM141.079 11.14C140.323 11.14 139.66 10.9673 139.091 10.622C138.522 10.2673 138.078 9.80067 137.761 9.222C137.444 8.64333 137.285 8.01333 137.285 7.332C137.285 6.65067 137.439 6.02533 137.747 5.456C138.064 4.87733 138.503 4.41533 139.063 4.07C139.632 3.72467 140.304 3.552 141.079 3.552C141.835 3.552 142.484 3.72 143.025 4.056C143.576 4.38267 143.986 4.82133 144.257 5.372L142.759 5.848C142.591 5.54 142.353 5.302 142.045 5.134C141.746 4.95667 141.415 4.868 141.051 4.868C140.64 4.868 140.267 4.97533 139.931 5.19C139.604 5.39533 139.343 5.68467 139.147 6.058C138.96 6.43133 138.867 6.856 138.867 7.332C138.867 7.808 138.965 8.23267 139.161 8.606C139.366 8.97933 139.632 9.278 139.959 9.502C140.295 9.71667 140.664 9.824 141.065 9.824C141.438 9.824 141.793 9.726 142.129 9.53C142.465 9.334 142.689 9.096 142.801 8.816L144.313 9.264C144.07 9.81467 143.664 10.2673 143.095 10.622C142.526 10.9673 141.854 11.14 141.079 11.14ZM145.581 2.474V0.78H147.121V2.474H145.581ZM145.581 11V3.678H147.121V11H145.581ZM160.172 11H158.632V6.898C158.632 6.226 158.52 5.73133 158.296 5.414C158.072 5.08733 157.745 4.924 157.316 4.924C156.887 4.924 156.485 5.08733 156.112 5.414C155.748 5.73133 155.491 6.14667 155.342 6.66V11H153.802V6.898C153.802 6.20733 153.69 5.708 153.466 5.4C153.242 5.08267 152.92 4.924 152.5 4.924C152.071 4.924 151.669 5.08267 151.296 5.4C150.932 5.71733 150.671 6.13267 150.512 6.646V11H148.972V3.678H150.372V5.148C150.652 4.63467 151.03 4.24267 151.506 3.972C151.982 3.692 152.523 3.552 153.13 3.552C153.737 3.552 154.213 3.71067 154.558 4.028C154.913 4.34533 155.132 4.742 155.216 5.218C155.851 4.10733 156.77 3.552 157.974 3.552C158.553 3.552 159.001 3.692 159.318 3.972C159.635 4.24267 159.855 4.60667 159.976 5.064C160.107 5.512 160.172 6.002 160.172 6.534V11ZM165.264 11.14C164.508 11.14 163.846 10.9673 163.276 10.622C162.707 10.2767 162.264 9.81933 161.946 9.25C161.629 8.67133 161.47 8.04133 161.47 7.36C161.47 6.66933 161.629 6.03467 161.946 5.456C162.264 4.87733 162.707 4.41533 163.276 4.07C163.846 3.72467 164.513 3.552 165.278 3.552C166.044 3.552 166.706 3.72933 167.266 4.084C167.826 4.42933 168.256 4.88667 168.554 5.456C168.862 6.02533 169.016 6.63667 169.016 7.29C169.016 7.52333 169.002 7.71 168.974 7.85H163.108C163.136 8.27933 163.253 8.65733 163.458 8.984C163.673 9.30133 163.939 9.55333 164.256 9.74C164.583 9.91733 164.938 10.006 165.32 10.006C165.731 10.006 166.118 9.90333 166.482 9.698C166.846 9.49267 167.098 9.222 167.238 8.886L168.554 9.264C168.302 9.81467 167.882 10.2673 167.294 10.622C166.716 10.9673 166.039 11.14 165.264 11.14ZM163.066 6.828H167.49C167.453 6.408 167.332 6.03933 167.126 5.722C166.921 5.39533 166.655 5.14333 166.328 4.966C166.011 4.77933 165.656 4.686 165.264 4.686C164.882 4.686 164.527 4.77933 164.2 4.966C163.883 5.14333 163.622 5.39533 163.416 5.722C163.211 6.03933 163.094 6.408 163.066 6.828ZM176.839 11H175.299V6.898C175.299 6.20733 175.187 5.708 174.963 5.4C174.748 5.08267 174.426 4.924 173.997 4.924C173.698 4.924 173.399 4.99867 173.101 5.148C172.811 5.29733 172.55 5.50267 172.317 5.764C172.083 6.02533 171.915 6.31933 171.813 6.646V11H170.273V3.678H171.673V5.148C171.953 4.66267 172.359 4.27533 172.891 3.986C173.423 3.69667 174.011 3.552 174.655 3.552C175.233 3.552 175.681 3.692 175.999 3.972C176.316 4.24267 176.535 4.602 176.657 5.05C176.778 5.498 176.839 5.99267 176.839 6.534V11ZM182.645 10.622C182.449 10.7153 182.179 10.8227 181.833 10.944C181.488 11.056 181.119 11.112 180.727 11.112C180.242 11.112 179.822 10.9813 179.467 10.72C179.122 10.4587 178.949 10.034 178.949 9.446V4.868H177.983V3.678H178.949V1.27H180.489V3.678H182.085V4.868H180.489V8.956C180.508 9.21733 180.587 9.40867 180.727 9.53C180.877 9.642 181.059 9.698 181.273 9.698C181.488 9.698 181.693 9.66067 181.889 9.586C182.085 9.51133 182.23 9.45067 182.323 9.404L182.645 10.622ZM186.906 11.14C186.141 11.14 185.474 10.9673 184.904 10.622C184.344 10.2673 183.91 9.80533 183.602 9.236C183.294 8.65733 183.14 8.02733 183.14 7.346C183.14 6.66467 183.294 6.03933 183.602 5.47C183.92 4.89133 184.358 4.42933 184.918 4.084C185.488 3.72933 186.15 3.552 186.906 3.552C187.662 3.552 188.32 3.72933 188.88 4.084C189.45 4.42933 189.888 4.89133 190.196 5.47C190.514 6.03933 190.672 6.66467 190.672 7.346C190.672 8.02733 190.518 8.65733 190.21 9.236C189.902 9.80533 189.464 10.2673 188.894 10.622C188.334 10.9673 187.672 11.14 186.906 11.14ZM184.722 7.36C184.722 7.82667 184.82 8.24667 185.016 8.62C185.212 8.99333 185.474 9.28733 185.8 9.502C186.127 9.71667 186.496 9.824 186.906 9.824C187.308 9.824 187.672 9.71667 187.998 9.502C188.334 9.278 188.6 8.97933 188.796 8.606C188.992 8.23267 189.09 7.81267 189.09 7.346C189.09 6.87933 188.992 6.45933 188.796 6.086C188.6 5.71267 188.334 5.41867 187.998 5.204C187.672 4.98 187.308 4.868 186.906 4.868C186.505 4.868 186.136 4.98 185.8 5.204C185.474 5.41867 185.212 5.71733 185.016 6.1C184.82 6.47333 184.722 6.89333 184.722 7.36ZM198.815 11.14C198.059 11.14 197.397 10.9673 196.827 10.622C196.258 10.2767 195.815 9.81933 195.497 9.25C195.18 8.67133 195.021 8.04133 195.021 7.36C195.021 6.66933 195.18 6.03467 195.497 5.456C195.815 4.87733 196.258 4.41533 196.827 4.07C197.397 3.72467 198.064 3.552 198.829 3.552C199.595 3.552 200.257 3.72933 200.817 4.084C201.377 4.42933 201.807 4.88667 202.105 5.456C202.413 6.02533 202.567 6.63667 202.567 7.29C202.567 7.52333 202.553 7.71 202.525 7.85H196.659C196.687 8.27933 196.804 8.65733 197.009 8.984C197.224 9.30133 197.49 9.55333 197.807 9.74C198.134 9.91733 198.489 10.006 198.871 10.006C199.282 10.006 199.669 9.90333 200.033 9.698C200.397 9.49267 200.649 9.222 200.789 8.886L202.105 9.264C201.853 9.81467 201.433 10.2673 200.845 10.622C200.267 10.9673 199.59 11.14 198.815 11.14ZM196.617 6.828H201.041C201.004 6.408 200.883 6.03933 200.677 5.722C200.472 5.39533 200.206 5.14333 199.879 4.966C199.562 4.77933 199.207 4.686 198.815 4.686C198.433 4.686 198.078 4.77933 197.751 4.966C197.434 5.14333 197.173 5.39533 196.967 5.722C196.762 6.03933 196.645 6.408 196.617 6.828ZM215.023 11H213.483V6.898C213.483 6.226 213.371 5.73133 213.147 5.414C212.923 5.08733 212.597 4.924 212.167 4.924C211.738 4.924 211.337 5.08733 210.963 5.414C210.599 5.73133 210.343 6.14667 210.193 6.66V11H208.653V6.898C208.653 6.20733 208.541 5.708 208.317 5.4C208.093 5.08267 207.771 4.924 207.351 4.924C206.922 4.924 206.521 5.08267 206.147 5.4C205.783 5.71733 205.522 6.13267 205.363 6.646V11H203.823V3.678H205.223V5.148C205.503 4.63467 205.881 4.24267 206.357 3.972C206.833 3.692 207.375 3.552 207.981 3.552C208.588 3.552 209.064 3.71067 209.409 4.028C209.764 4.34533 209.983 4.742 210.067 5.218C210.702 4.10733 211.621 3.552 212.825 3.552C213.404 3.552 213.852 3.692 214.169 3.972C214.487 4.24267 214.706 4.60667 214.827 5.064C214.958 5.512 215.023 6.002 215.023 6.534V11Z" fill="#53565A"/>
</svg>
